<svg width="38" height="38" viewBox="0 0 96 96" fill="none" xmlns="http://www.w3.org/2000/svg">
<path d="M48 96C74.5097 96 96 74.5097 96 48C96 21.4903 74.5097 0 48 0C21.4903 0 0 21.4903 0 48C0 74.5097 21.4903 96 48 96Z" fill="#1D282A"/>
<path fill-rule="evenodd" clip-rule="evenodd" d="M48 68.34C34.77 68.34 24 64.38 24 59.55C24 56.64 28.2 53.82 34.95 52.2C38.64 53.31 43.14 53.91 48 53.91C52.86 53.91 57.36 53.31 61.05 52.2C67.8 53.79 72 56.61 72 59.55C72 64.38 61.23 68.34 48 68.34Z" fill="white"/>
<path fill-rule="evenodd" clip-rule="evenodd" d="M48.0006 38.61C39.7806 38.61 32.8506 36.09 32.8506 33.12C32.8506 30.15 39.7806 27.66 48.0006 27.66C56.2206 27.66 63.1506 30.18 63.1506 33.15C63.1506 36.12 56.2206 38.61 48.0006 38.61Z" fill="white"/>
<path fill-rule="evenodd" clip-rule="evenodd" d="M47.9996 52.29C37.1996 52.29 28.0796 48.96 28.0796 45.03C28.0796 42.51 31.7696 40.14 37.7396 38.82C40.5896 39.75 44.0396 40.2 47.9996 40.2C51.9296 40.2 55.3796 39.75 58.2596 38.82C64.2296 40.14 67.9196 42.54 67.9196 45.03C67.9196 48.96 58.7996 52.29 47.9996 52.29Z" fill="white"/>
</svg>
