<svg width="38" height="38" viewBox="0 0 96 96" fill="none" xmlns="http://www.w3.org/2000/svg">
<path d="M48 96C74.5097 96 96 74.5097 96 48C96 21.4903 74.5097 0 48 0C21.4903 0 0 21.4903 0 48C0 74.5097 21.4903 96 48 96Z" fill="#42C37B"/>
<path fill-rule="evenodd" clip-rule="evenodd" d="M34.4998 47.9996C41.9555 47.9996 47.9996 41.9555 47.9996 34.4998C47.9996 27.0441 41.9555 21 34.4998 21C27.0441 21 21 27.0441 21 34.4998C21 41.9555 27.0441 47.9996 34.4998 47.9996ZM34.4998 75.0005C41.9555 75.0005 47.9996 68.9564 47.9996 61.5008C47.9996 54.0452 41.9555 48.001 34.4998 48.001C27.0441 48.001 21 54.0452 21 61.5008C21 68.9564 27.0441 75.0005 34.4998 75.0005ZM75.0006 34.4998C75.0006 41.9555 68.9565 47.9996 61.5009 47.9996C54.045 47.9996 48.001 41.9555 48.001 34.4998C48.001 27.0441 54.045 21 61.5009 21C68.9565 21 75.0006 27.0441 75.0006 34.4998ZM61.5009 48.001C54.045 48.001 48.001 54.0452 48.001 61.5008C48.001 68.9564 54.045 75.0005 61.5009 75.0005C68.9565 75.0005 75.0006 68.9564 75.0006 61.5008C75.0006 54.0452 68.9565 48.001 61.5009 48.001Z" fill="white"/>
</svg>
